<svg xmlns="http://www.w3.org/2000/svg" width="41.284" height="42.199" viewBox="0 0 41.284 42.199"><g transform="translate(-465.716 -562)"><g transform="translate(465.716 572)"><path d="M11.878,21.466H31.269a1.07,1.07,0,0,0,1.031-.779L36.593,5.661a1.072,1.072,0,0,0-1.032-1.368H9.4L8.633.841A1.073,1.073,0,0,0,7.584,0H1.073a1.073,1.073,0,0,0,0,2.147h5.65L10.6,19.588a3.218,3.218,0,0,0,1.279,6.172H31.269a1.073,1.073,0,1,0,0-2.147H11.878a1.073,1.073,0,1,1,0-2.147Zm0,0"/><path d="M151,363.224a3.22,3.22,0,1,0,3.22-3.22A3.223,3.223,0,0,0,151,363.224Zm0,0" transform="translate(-140.196 -334.245)"/><path d="M362,363.224a3.22,3.22,0,1,0,3.22-3.22A3.223,3.223,0,0,0,362,363.224Zm0,0" transform="translate(-336.102 -334.245)"/></g><path d="M11.5,0A11.5,11.5,0,1,1,0,11.5,11.5,11.5,0,0,1,11.5,0Z" transform="translate(484 562)" fill="#fff"/><path d="M6.238,6.238h0v0h0v0Z" transform="translate(502.146 580.146) rotate(180)" fill="none" stroke="#000" stroke-width="2"/></g></svg>